<svg xmlns="http://www.w3.org/2000/svg" viewBox="0 0 512 512" width="512" height="512">
<g stroke="white" stroke-width="1" stroke-linejoin="round">
<path d="M 256.00,34.00 L 294.10,56.00 L 256.00,78.00 L 217.90,56.00 Z" fill="#bae6fd"/>
<path d="M 294.10,56.00 L 332.21,78.00 L 294.10,100.00 L 256.00,78.00 Z" fill="#7dd3fc"/>
<path d="M 370.31,100.00 L 408.42,122.00 L 370.31,144.00 L 332.21,122.00 Z" fill="#38bdf8"/>
<path d="M 370.31,144.00 L 408.42,166.00 L 370.31,188.00 L 332.21,166.00 Z" fill="#0ea5e9"/>
<path d="M 332.21,166.00 L 370.31,188.00 L 332.21,210.00 L 294.10,188.00 Z" fill="#bae6fd"/>
<path d="M 294.10,188.00 L 332.21,210.00 L 294.10,232.00 L 256.00,210.00 Z" fill="#7dd3fc"/>
<path d="M 408.42,122.00 L 446.52,144.00 L 408.42,166.00 L 370.31,144.00 Z" fill="#38bdf8"/>
<path d="M 217.90,56.00 L 256.00,78.00 L 217.90,100.00 L 179.79,78.00 Z" fill="#0ea5e9"/>
<path d="M 179.79,78.00 L 217.90,100.00 L 179.79,122.00 L 141.69,100.00 Z" fill="#bae6fd"/>
<path d="M 141.69,100.00 L 179.79,122.00 L 141.69,144.00 L 103.58,122.00 Z" fill="#7dd3fc"/>
<path d="M 103.58,122.00 L 141.69,144.00 L 103.58,166.00 L 65.48,144.00 Z" fill="#38bdf8"/>
<path d="M 141.69,144.00 L 179.79,166.00 L 141.69,188.00 L 103.58,166.00 Z" fill="#0ea5e9"/>
<path d="M 179.79,166.00 L 217.90,188.00 L 179.79,210.00 L 141.69,188.00 Z" fill="#bae6fd"/>
<path d="M 217.90,188.00 L 256.00,210.00 L 217.90,232.00 L 179.79,210.00 Z" fill="#7dd3fc"/>
<path d="M 256.00,210.00 L 294.10,232.00 L 256.00,254.00 L 217.90,232.00 Z" fill="#38bdf8"/>
<path d="M 55.09,162.00 L 93.19,184.00 L 93.19,228.00 L 55.09,206.00 Z" fill="#0ea5e9"/>
<path d="M 93.19,184.00 L 131.30,206.00 L 131.30,250.00 L 93.19,228.00 Z" fill="#bae6fd"/>
<path d="M 131.30,206.00 L 169.40,228.00 L 169.40,272.00 L 131.30,250.00 Z" fill="#7dd3fc"/>
<path d="M 169.40,228.00 L 207.50,250.00 L 207.50,294.00 L 169.40,272.00 Z" fill="#38bdf8"/>
<path d="M 207.50,250.00 L 245.61,272.00 L 245.61,316.00 L 207.50,294.00 Z" fill="#0ea5e9"/>
<path d="M 55.09,206.00 L 93.19,228.00 L 93.19,272.00 L 55.09,250.00 Z" fill="#bae6fd"/>
<path d="M 207.50,294.00 L 245.61,316.00 L 245.61,360.00 L 207.50,338.00 Z" fill="#7dd3fc"/>
<path d="M 55.09,250.00 L 93.19,272.00 L 93.19,316.00 L 55.09,294.00 Z" fill="#38bdf8"/>
<path d="M 93.19,272.00 L 131.30,294.00 L 131.30,338.00 L 93.19,316.00 Z" fill="#0ea5e9"/>
<path d="M 131.30,294.00 L 169.40,316.00 L 169.40,360.00 L 131.30,338.00 Z" fill="#bae6fd"/>
<path d="M 169.40,316.00 L 207.50,338.00 L 207.50,382.00 L 169.40,360.00 Z" fill="#7dd3fc"/>
<path d="M 207.50,338.00 L 245.61,360.00 L 245.61,404.00 L 207.50,382.00 Z" fill="#38bdf8"/>
<path d="M 55.09,294.00 L 93.19,316.00 L 93.19,360.00 L 55.09,338.00 Z" fill="#0ea5e9"/>
<path d="M 131.30,338.00 L 169.40,360.00 L 169.40,404.00 L 131.30,382.00 Z" fill="#bae6fd"/>
<path d="M 169.40,360.00 L 207.50,382.00 L 207.50,426.00 L 169.40,404.00 Z" fill="#7dd3fc"/>
<path d="M 55.09,338.00 L 93.19,360.00 L 93.19,404.00 L 55.09,382.00 Z" fill="#38bdf8"/>
<path d="M 169.40,404.00 L 207.50,426.00 L 207.50,470.00 L 169.40,448.00 Z" fill="#0ea5e9"/>
<path d="M 207.50,426.00 L 245.61,448.00 L 245.61,492.00 L 207.50,470.00 Z" fill="#bae6fd"/>
<path d="M 266.39,272.00 L 304.50,250.00 L 304.50,294.00 L 266.39,316.00 Z" fill="#7dd3fc"/>
<path d="M 304.50,250.00 L 342.60,228.00 L 342.60,272.00 L 304.50,294.00 Z" fill="#38bdf8"/>
<path d="M 342.60,228.00 L 380.70,206.00 L 380.70,250.00 L 342.60,272.00 Z" fill="#0ea5e9"/>
<path d="M 380.70,206.00 L 418.81,184.00 L 418.81,228.00 L 380.70,250.00 Z" fill="#bae6fd"/>
<path d="M 418.81,184.00 L 456.91,162.00 L 456.91,206.00 L 418.81,228.00 Z" fill="#7dd3fc"/>
<path d="M 266.39,316.00 L 304.50,294.00 L 304.50,338.00 L 266.39,360.00 Z" fill="#38bdf8"/>
<path d="M 266.39,360.00 L 304.50,338.00 L 304.50,382.00 L 266.39,404.00 Z" fill="#0ea5e9"/>
<path d="M 342.60,316.00 L 380.70,294.00 L 380.70,338.00 L 342.60,360.00 Z" fill="#bae6fd"/>
<path d="M 380.70,294.00 L 418.81,272.00 L 418.81,316.00 L 380.70,338.00 Z" fill="#7dd3fc"/>
<path d="M 418.81,272.00 L 456.91,250.00 L 456.91,294.00 L 418.81,316.00 Z" fill="#38bdf8"/>
<path d="M 266.39,404.00 L 304.50,382.00 L 304.50,426.00 L 266.39,448.00 Z" fill="#0ea5e9"/>
<path d="M 418.81,316.00 L 456.91,294.00 L 456.91,338.00 L 418.81,360.00 Z" fill="#bae6fd"/>
<path d="M 266.39,448.00 L 304.50,426.00 L 304.50,470.00 L 266.39,492.00 Z" fill="#7dd3fc"/>
<path d="M 304.50,426.00 L 342.60,404.00 L 342.60,448.00 L 304.50,470.00 Z" fill="#38bdf8"/>
<path d="M 342.60,404.00 L 380.70,382.00 L 380.70,426.00 L 342.60,448.00 Z" fill="#0ea5e9"/>
<path d="M 380.70,382.00 L 418.81,360.00 L 418.81,404.00 L 380.70,426.00 Z" fill="#bae6fd"/>
<path d="M 418.81,360.00 L 456.91,338.00 L 456.91,382.00 L 418.81,404.00 Z" fill="#7dd3fc"/>
</g>
</svg>